<svg xmlns="http://www.w3.org/2000/svg" viewBox="0 0 512 512">
  <rect width="512" height="512" rx="100" fill="#1a1a2e"/>
  <!-- Corps -->
  <ellipse cx="256" cy="310" rx="130" ry="110" fill="#e8c49a"/>
  <!-- Tête -->
  <circle cx="256" cy="200" r="110" fill="#e8c49a"/>
  <!-- Oreilles -->
  <polygon points="160,120 130,55 200,95" fill="#e8c49a"/>
  <polygon points="352,120 382,55 312,95" fill="#e8c49a"/>
  <!-- Oreilles intérieures -->
  <polygon points="162,112 142,72 192,97" fill="#f0a0a0"/>
  <polygon points="350,112 370,72 320,97" fill="#f0a0a0"/>
  <!-- Yeux -->
  <ellipse cx="220" cy="195" rx="18" ry="20" fill="#2d5016"/>
  <ellipse cx="292" cy="195" rx="18" ry="20" fill="#2d5016"/>
  <ellipse cx="220" cy="196" rx="9" ry="15" fill="#111"/>
  <ellipse cx="292" cy="196" rx="9" ry="15" fill="#111"/>
  <circle cx="225" cy="190" r="4" fill="white"/>
  <circle cx="297" cy="190" r="4" fill="white"/>
  <!-- Nez -->
  <ellipse cx="256" cy="220" rx="8" ry="6" fill="#e07070"/>
  <!-- Bouche -->
  <path d="M248 226 Q256 234 264 226" stroke="#c05050" stroke-width="2" fill="none"/>
  <!-- Moustaches -->
  <line x1="160" y1="215" x2="235" y2="220" stroke="#888" stroke-width="2"/>
  <line x1="160" y1="225" x2="235" y2="225" stroke="#888" stroke-width="2"/>
  <line x1="277" y1="220" x2="352" y2="215" stroke="#888" stroke-width="2"/>
  <line x1="277" y1="225" x2="352" y2="225" stroke="#888" stroke-width="2"/>
  <!-- Petites pattes -->
  <ellipse cx="190" cy="400" rx="40" ry="25" fill="#d4a87a"/>
  <ellipse cx="322" cy="400" rx="40" ry="25" fill="#d4a87a"/>
  <!-- Queue -->
  <path d="M386 380 Q440 320 420 260 Q400 200 430 170" stroke="#d4a87a" stroke-width="22" fill="none" stroke-linecap="round"/>
  <!-- Coeur -->
  <path d="M240 460 Q256 445 272 460 Q285 448 285 438 Q285 424 272 424 Q264 424 256 432 Q248 424 240 424 Q227 424 227 438 Q227 448 240 460Z" fill="#e05080"/>
</svg>
